Coordinates
version=1
nRows=13
nColumns=40
inDegrees=yes

Units are S.I. units (second, meters, Newtons, ...)
Angles are in degrees.

endheader
time	pelvis_tilt	pelvis_list	pelvis_rotation	pelvis_tx	pelvis_ty	pelvis_tz	hip_flexion_r	hip_adduction_r	hip_rotation_r	knee_angle_r	knee_angle_r_beta	ankle_angle_r	subtalar_angle_r	mtp_angle_r	hip_flexion_l	hip_adduction_l	hip_rotation_l	knee_angle_l	knee_angle_l_beta	ankle_angle_l	subtalar_angle_l	mtp_angle_l	lumbar_extension	lumbar_bending	lumbar_rotation	arm_flex_r	arm_add_r	arm_rot_r	elbow_flex_r	pro_sup_r	wrist_flex_r	wrist_dev_r	arm_flex_l	arm_add_l	arm_rot_l	elbow_flex_l	pro_sup_l	wrist_flex_l	wrist_dev_l
      6.20000000	     -2.85133283	     -3.22132698	      1.19429705	      0.90082564	      0.92702245	      0.44257576	     16.91710337	     -7.84770001	    -11.43936640	     59.15136541	     59.15136541	      6.18025194	    -19.51679000	     16.57365981	     17.27555806	     -1.09671802	     -1.62643155	     25.40953134	     25.40953134	     13.78002999	    -15.46495400	      1.43276554	     -9.14839036	      1.43179087	      2.17085486	     32.78903840	    -12.04132235	     -4.12994734	     51.36194927	     45.52144519	      0.00000000	      0.00000000	     10.57557781	    -12.32759042	     15.15742759	     26.98685828	     44.86812690	      0.00000000	      0.00000000
      6.22092857	     -2.37945072	     -3.19880614	      0.50411212	      0.90055067	      0.92511165	      0.44059164	     18.33055539	     -7.92772671	    -10.44390990	     61.48115076	     61.48115076	      6.24000077	    -19.55846445	     16.70127296	     16.99367208	     -0.98060418	     -1.78750893	     26.78532499	     26.78532499	     14.54959129	    -16.53539194	      1.23329390	     -9.58704900	      1.78633907	      2.14514178	     29.52195178	    -11.77688034	     -3.80808362	     49.51803311	     45.55651713	      0.00000000	      0.00000000	     11.85781751	    -12.34357643	     15.02875801	     27.70095875	     44.91381259	      0.00000000	      0.00000000
      6.24185714	     -1.97944228	     -3.30617752	     -0.16258561	      0.90010197	      0.92324725	      0.43866839	     19.90736904	     -7.64948361	     -9.25822229	     63.66376098	     63.66376098	      7.23981126	    -19.57772005	     19.93704079	     16.88427223	     -0.97141190	     -1.80529208	     28.40519887	     28.40519887	     16.20472007	    -17.05877136	      3.51414515	     -9.92827215	      2.35983595	      2.18081482	     27.13951588	    -11.65441299	     -2.91835194	     44.54163481	     45.68707187	      0.00000000	      0.00000000	     13.07249143	    -12.35065520	     14.75215432	     28.80580340	     45.01938733	      0.00000000	      0.00000000
      6.26278571	     -1.56236184	     -3.39217768	     -0.83340945	      0.89980528	      0.92144433	      0.43686106	     21.27472502	     -7.39424353	     -8.25810525	     65.29019429	     65.29019429	      7.75113321	    -19.59507246	     20.83490322	     16.62754938	     -0.95284586	     -1.96017093	     29.80394556	     29.80394556	     17.62933963	    -17.54400714	      5.04735206	    -10.33808515	      2.87200543	      2.20166734	     24.46517251	    -11.55007889	     -2.36752247	     40.48598577	     45.79596196	      0.00000000	      0.00000000	     14.30704877	    -12.43516818	     14.29159395	     30.06698593	     45.14509289	      0.00000000	      0.00000000
      6.28371429	     -1.21798850	     -3.54150975	     -1.48238343	      0.89953878	      0.91976424	      0.43532103	     22.54948530	     -7.00386154	     -7.37799929	     66.31807097	     66.31807097	      8.19702375	    -19.60826564	     20.82172607	     16.31830597	     -1.05729451	     -2.26773231	     30.92271304	     30.92271304	     18.46720690	    -17.95635381	      5.15541361	    -10.73648294	      3.43751675	      2.57011648	     21.11110636	    -11.83728414	     -2.14074081	     38.02879735	     45.85720076	      0.00000000	      0.00000000	     15.78023435	    -12.41633105	     13.98481017	     31.22018791	     45.21987749	      0.00000000	      0.00000000
      6.30464286	     -0.89791415	     -3.72258725	     -2.11810613	      0.89930122	      0.91853854	      0.43407531	     23.68187653	     -6.50431769	     -6.59400085	     66.69743349	     66.69743349	      8.90028781	    -19.60890893	     21.03209398	     15.88183905	     -1.19955309	     -2.58156581	     31.77495536	     31.77495536	     19.40377504	    -18.17972920	      5.74423987	    -11.12290337	      4.00064770	      2.91221063	     17.94920582	    -12.12915141	     -1.92327287	     35.18817673	     45.93624223	      0.00000000	      0.00000000	     17.20547774	    -12.45671903	     13.58061486	     32.52858140	     45.30670810	      0.00000000	      0.00000000
      6.32557143	     -0.68059408	     -3.91733689	     -2.69085804	      0.89905076	      0.91772637	      0.43320436	     24.73497838	     -5.94520553	     -5.96860087	     66.39773486	     66.39773486	      9.74156285	    -19.59661692	     21.10325820	     15.42403212	     -1.37291981	     -2.88129389	     32.36014854	     32.36014854	     20.24440602	    -18.30273837	      6.35724625	    -11.43077059	      4.55026914	      3.06822578	     14.88683343	    -12.34060972	     -1.77450270	     32.59545628	     46.01098611	      0.00000000	      0.00000000	     18.53170818	    -12.62447113	     13.09059906	     33.91698815	     45.39984571	      0.00000000	      0.00000000
      6.34650000	     -0.54142976	     -4.11028885	     -3.25726693	      0.89881328	      0.91751082	      0.43270161	     25.65031338	     -5.33337992	     -5.44492651	     65.34687398	     65.34687398	     10.64283905	    -19.57192508	     21.00088697	     14.84826635	     -1.55564101	     -3.21549445	     32.55902983	     32.55902983	     20.97971107	    -18.36358165	      7.12054777	    -11.64714806	      5.07736385	      3.06083196	     11.94904606	    -12.49385501	     -1.73370924	     30.15183421	     46.08914000	      0.00000000	      0.00000000	     19.66124632	    -12.95574163	     12.38815122	     35.54575072	     45.51571833	      0.00000000	      0.00000000
      6.36742857	     -0.53986128	     -4.35204898	     -3.75963010	      0.89853895	      0.91788649	      0.43265595	     26.43949381	     -4.62237138	     -5.08740875	     63.49237515	     63.49237515	     11.48712946	    -19.52785978	     20.62018306	     14.22921948	     -1.82406136	     -3.55671921	     32.36337395	     32.36337395	     21.38839397	    -18.36870317	      7.50392324	    -11.74477187	      5.61161007	      2.81349863	      8.98437091	    -12.64671480	     -1.76021970	     28.42009048	     46.14146524	      0.00000000	      0.00000000	     20.70869190	    -13.43487412	     11.75365924	     36.94288854	     45.61442440	      0.00000000	      0.00000000
      6.38835714	     -0.76401772	     -4.47429213	     -4.29408138	      0.89802680	      0.91846198	      0.43311662	     27.35410421	     -3.94736267	     -4.69340541	     61.07829884	     61.07829884	     12.29264551	    -19.45561178	     20.32664981	     13.76918294	     -2.02678682	     -4.01260203	     31.95546500	     31.95546500	     21.56205351	    -18.33208268	      7.65202362	    -11.61730875	      5.94161787	      2.03857526	      6.22828462	    -12.68393226	     -1.79592020	     27.30117797	     46.16804632	      0.00000000	      0.00000000	     21.73673392	    -14.51304951	     11.29171064	     37.64127162	     45.68330666	      0.00000000	      0.00000000
      6.40928571	     -0.82594186	     -4.78368209	     -4.87554972	      0.89771682	      0.92011580	      0.43395748	     27.56454690	     -3.14099009	     -4.60459183	     57.56215092	     57.56215092	     11.66480959	    -19.33247471	     15.92998358	     12.81146888	     -2.40993783	     -4.47781975	     31.02954969	     31.02954969	     21.80042461	    -18.12557954	      8.19172941	    -11.91490098	      6.44407853	      2.09705130	      3.28985931	    -12.86632581	     -3.26621637	     25.87354059	     46.34003203	      0.00000000	      0.00000000	     21.19136467	    -14.83855908	      7.33671297	     44.00734780	     46.16521897	      0.00000000	      0.00000000
      6.43021429	     -1.04608073	     -4.97404865	     -5.43117380	      0.89731464	      0.92195200	      0.43526447	     27.70590810	     -2.37987359	     -4.48277179	     53.44781814	     53.44781814	     10.87627655	    -19.11417330	     11.66268490	     11.87066006	     -2.70863293	     -5.04437323	     29.74310909	     29.74310909	     21.42733195	    -17.97447623	      7.61076990	    -11.90995646	      6.77330611	      1.81693756	      0.54661301	    -12.93120127	     -4.72940465	     24.86547852	     46.49957419	      0.00000000	      0.00000000	     21.82172713	    -15.19518518	      4.58897967	     46.37385527	     46.47696508	      0.00000000	      0.00000000
      6.45114286	     -1.37628865	     -5.20189174	     -6.00654866	      0.89680893	      0.92385028	      0.43700965	     27.65191669	     -1.54528848	     -4.42044591	     48.71345104	     48.71345104	      9.53054179	    -18.69318203	      6.66099302	     10.96861953	     -3.08414866	     -5.67937249	     28.30935745	     28.30935745	     20.92682757	    -17.74641120	      6.86373304	    -11.86663108	      7.11407898	      1.77779673	     -2.38273639	    -13.06222599	     -6.22148177	     24.65418179	     46.61616341	      0.00000000	      0.00000000	     22.48686200	    -15.76952103	      3.03414085	     49.12019210	     46.66147582	      0.00000000	      0.00000000
